<?xml version="1.0" standalone="no"?>
<!DOCTYPE svg PUBLIC "-//W3C//DTD SVG 20010904//EN"
 "http://www.w3.org/TR/2001/REC-SVG-20010904/DTD/svg10.dtd">
<svg version="1.0" xmlns="http://www.w3.org/2000/svg"
 width="1268.000000pt" height="1280.000000pt" viewBox="0 0 1268.000000 1280.000000"
 preserveAspectRatio="xMidYMid meet">
<g transform="translate(0.000000,1280.000000) scale(0.100000,-0.100000)"
fill="#ffffff" stroke="none">
<path d="M6000 12797 c-3 -3 -77 -10 -165 -16 -1165 -83 -2195 -428 -3151
-1057 -689 -453 -1337 -1092 -1788 -1763 -85 -127 -310 -569 -396 -776 -241
-587 -389 -1155 -455 -1749 -8 -72 -13 -131 -11 -133 2 -2 13 49 25 114 103
555 279 1120 496 1583 314 670 737 1273 1265 1800 697 697 1536 1221 2435
1519 504 168 997 266 1560 313 194 16 757 16 950 0 1344 -112 2541 -603 3576
-1469 174 -144 482 -443 629 -608 590 -662 1008 -1381 1285 -2210 233 -694
336 -1378 322 -2120 -13 -661 -113 -1246 -322 -1870 -103 -311 -184 -505 -330
-800 -492 -992 -1240 -1841 -2160 -2452 -917 -610 -1913 -948 -3045 -1034
-196 -15 -710 -15 -900 0 -711 57 -1351 206 -1926 449 -744 315 -1383 727
-1939 1251 -46 44 -55 50 -25 18 105 -114 402 -369 605 -520 873 -653 1933
-1076 3015 -1206 286 -35 466 -45 780 -44 545 0 1038 63 1565 198 1629 418
3004 1448 3883 2911 479 797 788 1750 867 2679 8 99 19 227 25 285 13 135 13
445 0 580 -6 58 -17 186 -25 285 -103 1204 -561 2375 -1305 3337 -322 415
-736 829 -1155 1154 -672 521 -1435 902 -2251 1123 -522 141 -1080 218 -1664
228 -146 3 -267 3 -270 0z"/>
<path d="M5935 12474 c-478 -29 -896 -98 -1341 -220 -1391 -380 -2651 -1293
-3466 -2509 -313 -468 -471 -811 -628 -1362 -72 -253 -169 -710 -158 -744 2
-6 25 74 51 178 64 255 116 425 194 633 454 1213 1277 2250 2345 2953 1302
857 2839 1179 4380 917 1249 -213 2399 -817 3293 -1731 467 -478 806 -952
1099 -1539 337 -676 533 -1363 613 -2150 24 -245 24 -883 0 -1120 -25 -238
-28 -288 -12 -185 44 276 64 774 46 1100 -49 861 -247 1612 -626 2380 -387
784 -898 1434 -1560 1985 -386 321 -757 563 -1206 785 -675 333 -1400 536
-2179 610 -155 15 -709 27 -845 19z"/>
<path d="M5815 12199 c-1435 -108 -2775 -731 -3775 -1755 -186 -190 -244 -259
-356 -419 -406 -580 -704 -1230 -875 -1913 -23 -90 -39 -165 -37 -168 3 -2 26
62 52 143 103 317 283 736 441 1021 146 265 339 553 527 788 459 575 1021
1058 1643 1413 776 444 1563 681 2470 742 217 15 747 6 950 -16 913 -97 1700
-368 2475 -853 668 -418 1276 -1012 1715 -1677 281 -425 514 -908 669 -1382
340 -1046 373 -2163 96 -3220 -353 -1346 -1189 -2521 -2349 -3300 -608 -409
-1323 -709 -2032 -852 -354 -72 -625 -101 -1019 -108 -413 -8 -706 13 -1087
77 -1022 172 -1910 583 -2724 1261 -261 217 -668 645 -871 916 -39 51 -72 93
-75 93 -8 0 59 -89 183 -244 584 -730 1347 -1312 2206 -1685 537 -232 1086
-372 1743 -443 190 -21 908 -17 1105 5 957 108 1759 387 2530 879 383 244 678
486 1020 834 420 428 740 872 1016 1409 289 563 483 1170 573 1795 46 315 55
461 55 845 0 385 -9 526 -55 850 -229 1604 -1165 3081 -2529 3992 -850 568
-1829 901 -2860 973 -168 11 -665 11 -825 -1z"/>
<path d="M5900 11853 c-30 -2 -122 -10 -205 -19 -1121 -112 -2131 -541 -3020
-1280 -162 -135 -517 -488 -657 -654 -315 -374 -592 -805 -722 -1122 -133
-324 -247 -712 -305 -1033 -20 -114 -21 -149 -1 -74 292 1127 915 2117 1795
2852 775 648 1747 1080 2735 1216 287 39 399 46 755 45 437 -1 719 -28 1095
-105 1063 -219 1992 -720 2760 -1489 607 -607 1054 -1335 1324 -2152 89 -269
170 -613 210 -893 66 -450 73 -992 21 -1440 -24 -204 -26 -227 -10 -145 8 41
21 135 30 210 146 1291 -168 2572 -898 3665 -201 301 -396 536 -676 815 -462
462 -907 779 -1475 1056 -638 310 -1330 493 -2056 544 -133 9 -568 11 -700 3z"/>
<path d="M5910 11549 c-701 -47 -1347 -220 -1975 -529 -527 -259 -945 -558
-1373 -983 -310 -307 -545 -601 -770 -962 -105 -169 -146 -251 -225 -451 -210
-528 -328 -1080 -356 -1656 -12 -242 -2 -277 21 -73 46 410 140 819 268 1170
536 1466 1699 2600 3165 3090 541 181 1026 259 1610 259 588 0 1069 -78 1645
-267 489 -161 1007 -438 1430 -766 980 -760 1663 -1838 1894 -2991 195 -970
109 -1994 -241 -2885 -384 -975 -1049 -1794 -1943 -2392 -1034 -692 -2370
-970 -3645 -757 -795 132 -1574 477 -2250 996 -49 38 -72 53 -50 33 22 -21 99
-81 170 -135 1425 -1067 3353 -1300 5007 -604 479 202 909 465 1323 810 151
126 453 424 577 569 1005 1179 1426 2693 1172 4220 -133 806 -466 1582 -956
2230 -158 208 -255 322 -438 509 -639 654 -1378 1102 -2241 1360 -577 172
-1222 245 -1819 205z"/>
<path d="M12275 5445 c-3 -31 -5 -59 -2 -61 3 -3 8 20 12 51 3 31 5 59 2 61
-3 3 -8 -20 -12 -51z"/>
<path d="M11652 5455 c0 -16 2 -22 5 -12 2 9 2 23 0 30 -3 6 -5 -1 -5 -18z"/>
<path d="M11642 5395 c0 -16 2 -22 5 -12 2 9 2 23 0 30 -3 6 -5 -1 -5 -18z"/>
<path d="M12262 5350 c0 -14 2 -19 5 -12 2 6 2 18 0 25 -3 6 -5 1 -5 -13z"/>
<path d="M11632 5340 c0 -14 2 -19 5 -12 2 6 2 18 0 25 -3 6 -5 1 -5 -13z"/>
<path d="M12252 5290 c0 -14 2 -19 5 -12 2 6 2 18 0 25 -3 6 -5 1 -5 -13z"/>
<path d="M2870 2597 c0 -2 15 -16 33 -33 l32 -29 -29 33 c-28 30 -36 37 -36
29z"/>
<path d="M2950 2527 c0 -2 15 -16 33 -33 l32 -29 -29 33 c-28 30 -36 37 -36
29z"/>
<path d="M3040 2445 c13 -14 26 -25 28 -25 3 0 -5 11 -18 25 -13 14 -26 25
-28 25 -3 0 5 -11 18 -25z"/>
</g>
</svg>
